<?xml version="1.0" encoding="UTF-8"?>
<svg width="32px" height="32px" viewBox="0 0 32 32" version="1.1" xmlns="http://www.w3.org/2000/svg" xmlns:xlink="http://www.w3.org/1999/xlink">
    <title>公司</title>
    <g id="页面-1" stroke="none" stroke-width="1" fill="none" fill-rule="evenodd">
        <g id="图标画板" transform="translate(-185.000000, -158.000000)" fill="#0091FF" fill-rule="nonzero">
            <g id="公司" transform="translate(185.000000, 158.000000)">
                <rect id="矩形" opacity="0" x="0" y="0" width="32" height="32"></rect>
                <path d="M29.376,26.96 L27.84,26.96 L27.84,9.472 C27.84,8.96 27.536,8.512 27.072,8.288 L19.408,4.288 C18.976,4.096 18.496,4.096 18.064,4.288 C17.584,4.48 17.28,4.944 17.296,7.472 L17.296,28.96 L15.76,28.96 L15.76,5.344 C15.76,2.752 15.76,2.368 15.184,2.16 C14.688,1.952 14.144,1.952 13.648,2.16 L4.88,6.784 C4.416,7.008 4.112,7.488 4.112,8 L4.112,26.976 L2.576,26.976 C2.192,26.976 2,27.184 2,27.376 L2,29.6 C2,29.792 2.192,30 2.576,30 L29.376,30 C29.552,30 29.92,29.792 29.952,29.6 L29.952,27.392 C30,27.152 29.584,26.96 29.376,26.96 Z M11.376,24.144 C11.376,24.368 11.2,24.544 10.976,24.544 L8.816,24.544 C8.592,24.544 8.416,24.368 8.416,24.144 L8.416,22.272 C8.416,22.048 8.592,21.872 8.816,21.872 L11.024,21.872 C11.248,21.872 11.424,22.048 11.424,22.272 L11.376,24.144 L11.376,24.144 Z M11.376,18.496 C11.376,18.72 11.2,18.896 10.976,18.896 L8.816,18.896 C8.592,18.896 8.416,18.72 8.416,18.496 L8.416,16.592 C8.416,16.368 8.592,16.192 8.816,16.192 L11.024,16.192 C11.248,16.192 11.424,16.368 11.424,16.592 L11.376,18.496 L11.376,18.496 Z M11.376,12.864 C11.376,13.088 11.2,13.264 10.976,13.264 L8.816,13.264 C8.592,13.264 8.416,13.088 8.416,12.864 L8.416,10.944 C8.416,10.72 8.592,10.544 8.816,10.544 L11.024,10.544 C11.248,10.544 11.424,10.72 11.424,10.944 L11.376,12.864 L11.376,12.864 Z M24,24.128 C24,24.352 23.824,24.528 23.6,24.528 L21.392,24.528 C21.168,24.528 20.992,24.352 20.992,24.128 L20.992,22.24 C20.992,22.016 21.168,21.84 21.392,21.84 L23.6,21.84 C23.824,21.84 24,22.016 24,22.24 L24,24.128 Z M24,18.48 C24,18.704 23.824,18.88 23.6,18.88 L21.392,18.88 C21.168,18.88 20.992,18.704 20.992,18.48 L20.992,16.592 C20.992,16.368 21.168,16.192 21.392,16.192 L23.6,16.192 C23.824,16.192 24,16.368 24,16.592 L24,18.48 L24,18.48 Z M24,12.848 C24,13.072 23.824,13.248 23.6,13.248 L21.392,13.248 C21.168,13.248 20.992,13.072 20.992,12.848 L20.992,10.944 C20.992,10.72 21.168,10.544 21.392,10.544 L23.6,10.544 C23.824,10.544 24,10.72 24,10.944 L24,12.848 Z" id="形状"></path>
            </g>
        </g>
    </g>
</svg>