<?xml version="1.0" encoding="UTF-8"?>
<svg width="30px" height="30px" viewBox="0 0 30 30" version="1.1" xmlns="http://www.w3.org/2000/svg" xmlns:xlink="http://www.w3.org/1999/xlink">
    <title>机构</title>
    <g id="页面-1" stroke="none" stroke-width="1" fill="none" fill-rule="evenodd">
        <g id="图标画板" transform="translate(-46.000000, -159.000000)" fill="#0091FF" fill-rule="nonzero">
            <g id="机构" transform="translate(46.000000, 159.000000)">
                <rect id="矩形" opacity="0" x="0" y="0" width="30" height="30"></rect>
                <path d="M5.10399998,12.9878049 L7.31199998,12.9878049 L7.31199998,27.0121951 L10.624,27.0121951 L10.624,15 L13.8746667,15 L13.8746667,27.0121951 L17.1866667,27.0121951 L17.1866667,15 L20.4373333,15 L20.4373333,27.0121951 L23.7493333,27.0121951 L23.7493333,12.9878049 L25.896,12.9878049 C26.223336,12.9878049 26.4890934,12.8963415 26.6933333,12.7134146 C26.8977573,12.5304878 27,12.2967683 27,12.0121951 C27,11.6868902 26.8569093,11.4226219 26.5706667,11.2195122 L26.5706667,11.1585366 L26.5093333,11.1585366 L16.0826667,5.79268292 L16.0826667,4.20731707 C16.696,4.49195121 17.6262427,4.53262195 18.8733333,4.3292683 C20.120424,4.12603658 21.1937574,4.1870122 22.0933333,4.51219512 L22.0933333,1.03658537 C21.2346667,0.711402451 20.1613333,0.650426836 18.8733333,0.853658525 C17.5853334,1.05689021 16.6550907,1.01628047 16.0826667,0.731707324 L16.0826667,0.487804893 C16.0826667,0.162621973 15.8986667,0 15.5306667,0 C15.1626666,0 14.9786667,0.162621943 14.9786667,0.487804893 L14.9786667,5.79268292 L4.55199999,11.1585366 L4.49066665,11.1585366 L4.49066665,11.2195122 C4.16357599,11.4227439 4,11.6870122 4,12.0121951 C4,12.2967683 4.11242399,12.5304878 4.33733332,12.7134146 C4.56224265,12.8963415 4.81775731,12.9878049 5.10399998,12.9878049 Z M6.20799999,27.9878049 L4,30 L27,30 L24.8533333,27.9878049 L6.20799999,27.9878049 Z" id="形状"></path>
            </g>
        </g>
    </g>
</svg>