<?xml version="1.0" encoding="UTF-8"?>
<svg width="28px" height="28px" viewBox="0 0 28 28" version="1.1" xmlns="http://www.w3.org/2000/svg" xmlns:xlink="http://www.w3.org/1999/xlink">
    <title>学校</title>
    <g id="页面-1" stroke="none" stroke-width="1" fill="none" fill-rule="evenodd">
        <g id="图标画板" transform="translate(-95.000000, -159.000000)" fill="#0091FF" fill-rule="nonzero">
            <g id="学校" transform="translate(95.000000, 159.000000)">
                <path d="M24.8187952,17.6626331 L24.8187952,12.6108422 C24.8187952,12.5600194 24.8592771,12.5193611 24.9098795,12.5193611 L26.88,12.5193611 C26.9440964,12.5193611 26.9845783,12.4617619 26.9710843,12.4075508 L25.8072289,7.71829622 C25.8004819,7.67763795 25.7566265,7.64714424 25.7161446,7.64714424 L13.5850602,7.64714424 C13.5344578,7.64714424 13.4939759,7.60648596 13.4939759,7.55566312 L13.4939759,4.3267183 C13.4939759,4.2928364 13.5142169,4.25556631 13.5513253,4.24201355 L18.3248193,2.0464666 C18.4024096,2.0125847 18.3956627,1.90416263 18.3180723,1.87705712 L13.4804819,0 L12.4009639,0 L12.4009639,7.55227493 C12.4009639,7.60309777 12.3604819,7.64375605 12.3098795,7.64375605 L2.34120482,7.64375605 C2.30072289,7.64375605 2.26361446,7.67086157 2.25012048,7.71490803 L1.08626506,12.4007744 C1.07277108,12.4583737 1.11325301,12.5125847 1.1773494,12.5125847 L3.14746988,12.5125847 C3.19807229,12.5125847 3.23855422,12.553243 3.23855422,12.6040658 L3.23855422,17.6558567 C3.23855422,17.7066796 3.19807229,17.7473379 3.14746988,17.7473379 L0.0910843373,17.7473379 C0.0404819277,17.7473379 0,17.7879961 0,17.838819 L0,27.9017425 C0,27.9525653 0.0404819277,27.9932236 0.0910843373,27.9932236 L10.1542169,27.9932236 C10.2048193,27.9932236 10.2453012,27.9525653 10.2453012,27.9017425 L10.2453012,20.4849952 C10.2453012,20.4341723 10.2857831,20.393514 10.3363855,20.393514 L17.7850602,20.393514 C17.8356627,20.393514 17.8761446,20.4341723 17.8761446,20.4849952 L17.8761446,27.9085189 C17.8761446,27.9593417 17.9166265,28 17.9672289,28 L27.9089157,28 C27.9595181,28 28,27.9593417 28,27.9085189 L28,17.8455954 C28,17.7947725 27.9595181,17.7541142 27.9089157,17.7541142 L24.9098795,17.7541142 C24.8592771,17.7541142 24.8187952,17.713456 24.8187952,17.6626331 Z M3.11036145,22.8092933 L0.89060241,22.8092933 C0.84,22.8092933 0.799518072,22.768635 0.799518072,22.7178122 L0.799518072,20.4240077 C0.799518072,20.3731849 0.84,20.3325266 0.89060241,20.3325266 L3.11036145,20.3325266 C3.16096386,20.3325266 3.20144578,20.3731849 3.20144578,20.4240077 L3.20144578,22.7178122 C3.20819277,22.7720232 3.16771084,22.8092933 3.11036145,22.8092933 Z M7.56674699,22.9075508 L5.32337349,22.9075508 C5.27277108,22.9075508 5.23228916,22.8668925 5.23228916,22.8160697 L5.23228916,20.5222652 C5.23228916,20.4714424 5.27277108,20.4307841 5.32337349,20.4307841 L7.57349398,20.4307841 C7.62409639,20.4307841 7.66457831,20.4714424 7.66457831,20.5222652 L7.66457831,22.8160697 C7.66457831,22.8635044 7.62409639,22.9075508 7.56674699,22.9075508 L7.56674699,22.9075508 Z M7.60385542,17.7541142 L5.32674699,17.7541142 C5.27614458,17.7541142 5.23566265,17.713456 5.23566265,17.6626331 L5.23566265,15.3688287 C5.23566265,15.3180058 5.27614458,15.2773475 5.32674699,15.2773475 L7.61060241,15.2773475 C7.66120482,15.2773475 7.70168675,15.3180058 7.70168675,15.3688287 L7.70168675,17.6626331 C7.70168675,17.713456 7.65783133,17.7541142 7.60385542,17.7541142 Z M12.6843373,17.7541142 L10.4342169,17.7541142 C10.3836145,17.7541142 10.3431325,17.713456 10.3431325,17.6626331 L10.3431325,15.3688287 C10.3431325,15.3180058 10.3836145,15.2773475 10.4342169,15.2773475 L12.6843373,15.2773475 C12.7349398,15.2773475 12.7754217,15.3180058 12.7754217,15.3688287 L12.7754217,17.6626331 C12.7754217,17.713456 12.7315663,17.7541142 12.6843373,17.7541142 Z M17.7479518,17.7541142 L15.4640964,17.7541142 C15.413494,17.7541142 15.373012,17.713456 15.373012,17.6626331 L15.373012,15.3688287 C15.373012,15.3180058 15.413494,15.2773475 15.4640964,15.2773475 L17.7479518,15.2773475 C17.7985542,15.2773475 17.8390361,15.3180058 17.8390361,15.3688287 L17.8390361,17.6626331 C17.8390361,17.713456 17.7985542,17.7541142 17.7479518,17.7541142 Z M22.7103614,22.9075508 L20.460241,22.9075508 C20.4096386,22.9075508 20.3691566,22.8668925 20.3691566,22.8160697 L20.3691566,20.5222652 C20.3691566,20.4714424 20.4096386,20.4307841 20.460241,20.4307841 L22.7103614,20.4307841 C22.7609639,20.4307841 22.8014458,20.4714424 22.8014458,20.5222652 L22.8014458,22.8160697 C22.8081928,22.8635044 22.7643373,22.9075508 22.7103614,22.9075508 L22.7103614,22.9075508 Z M22.8081928,17.7541142 L20.5310843,17.7541142 C20.4804819,17.7541142 20.44,17.713456 20.44,17.6626331 L20.433253,15.3688287 C20.433253,15.3180058 20.4737349,15.2773475 20.5243373,15.2773475 L22.8081928,15.2773475 C22.8587952,15.2773475 22.8992771,15.3180058 22.8992771,15.3688287 L22.8992771,17.6626331 C22.8992771,17.713456 22.8655422,17.7541142 22.8081928,17.7541142 Z M27.146506,22.9075508 L24.8963855,22.9075508 C24.8457831,22.9075508 24.8053012,22.8668925 24.8053012,22.8160697 L24.8053012,20.5222652 C24.8053012,20.4714424 24.8457831,20.4307841 24.8963855,20.4307841 L27.146506,20.4307841 C27.1971084,20.4307841 27.2375904,20.4714424 27.2375904,20.5222652 L27.2375904,22.8160697 C27.2375904,22.8635044 27.1937349,22.9075508 27.146506,22.9075508 L27.146506,22.9075508 Z" id="形状"></path>
            </g>
        </g>
    </g>
</svg>