<?xml version="1.0" encoding="UTF-8"?>
<svg width="32px" height="32px" viewBox="0 0 32 32" version="1.1" xmlns="http://www.w3.org/2000/svg" xmlns:xlink="http://www.w3.org/1999/xlink">
    <title>产业园区</title>
    <g id="页面-1" stroke="none" stroke-width="1" fill="none" fill-rule="evenodd">
        <g id="图标画板" transform="translate(-138.000000, -158.000000)" fill="#0091FF" fill-rule="nonzero">
            <g id="产业园区" transform="translate(138.000000, 158.000000)">
                <rect id="矩形" opacity="0" x="0" y="0" width="32" height="32"></rect>
                <path d="M24.622,12.072 L27.598,13.41 L27.598,18.368 L27.82,18.62 L29.512,20.514 L29.512,28.308 L31.246,28.308 L31.246,19.86 L31.024,19.614 L29.334,17.72 L29.334,12.416 L28.896,12.166 L24.62,10.188 L15.864,12.994 L15.864,28.036 L24.622,28.036 L24.622,12.072 Z M7.506,7.958 L5.834,8.398 L5.834,11.038 L7.506,10.704 L7.506,7.958 Z M23.184,12.594 L23.184,14.784 L21.736,15.072 L21.736,12.976 C22.208,12.854 22.686,12.726 23.184,12.594 M18.116,19.656 L18.116,21.518 L17.06,21.518 L17.06,19.726 L18.116,19.656 M20.452,19.506 L20.452,21.518 L19.224,21.518 L19.224,19.584 L20.452,19.506 M23.184,19.328 L23.184,21.518 L21.736,21.518 L21.736,19.422 L23.184,19.328 M18.116,16.796 L18.116,18.658 C17.756,18.692 17.402,18.726 17.06,18.762 L17.06,16.966 L18.116,16.796 M20.452,16.414 L20.452,18.424 L19.226,18.546 L19.226,16.614 C19.624,16.546 20.032,16.48 20.452,16.414 M23.184,15.964 L23.184,18.154 L21.736,18.296 L21.736,16.2 C22.208,16.126 22.686,16.042 23.184,15.964 M18.116,13.93 L18.116,15.794 C17.756,15.864 17.402,15.932 17.06,16.004 L17.06,14.208 L18.116,13.93 M20.452,13.316 L20.452,15.332 C20.032,15.412 19.624,15.494 19.226,15.574 L19.226,13.638 L20.452,13.316 M11.23,6.976 C10.556,7.156 9.898,7.328 9.26,7.496 L9.26,10.356 L11.23,9.964 L11.23,6.976 L11.23,6.976 Z M4.318,16.61 C3.826,16.64 3.348,16.668 2.88,16.704 L2.88,19.148 L4.316,19.148 L4.318,16.61 M7.506,16.402 L5.834,16.512 L5.834,19.146 L7.506,19.146 L7.506,16.402 Z M11.23,16.16 C10.556,16.204 9.898,16.25 9.26,16.29 L9.26,19.148 L11.23,19.148 L11.23,16.16 Z M4.318,12.704 L2.88,12.94 L2.88,15.386 L4.318,15.246 L4.318,12.704 Z M7.506,12.182 L5.834,12.456 L5.834,15.092 L7.506,14.928 L7.506,12.182 Z M11.23,11.572 L9.26,11.894 L9.26,14.752 L11.23,14.556 L11.23,11.572 L11.23,11.572 Z M4.318,8.796 L2.88,9.174 L2.88,11.622 L4.318,11.336 L4.318,8.796 Z M13.19,3.69 L18.864,6.66 L19.306,6.912 L19.306,11.392 L17.566,11.392 L17.566,7.908 L13.19,5.638 L13.19,28.038 L1.246,28.038 L1.246,7.52 L13.19,3.69 Z" id="形状"></path>
            </g>
        </g>
    </g>
</svg>