<?xml version="1.0" encoding="UTF-8"?>
<svg width="34px" height="34px" viewBox="0 0 34 34" version="1.1" xmlns="http://www.w3.org/2000/svg" xmlns:xlink="http://www.w3.org/1999/xlink">
    <title>地区</title>
    <g id="页面-1" stroke="none" stroke-width="1" fill="none" fill-rule="evenodd">
        <g id="图标画板" transform="translate(-243.000000, -156.000000)" fill="#0091FF" fill-rule="nonzero">
            <g id="地区" transform="translate(243.000000, 156.000000)">
                <g id="国家/地区">
                    <rect id="矩形" opacity="0" x="0" y="0" width="34" height="34"></rect>
                    <polygon id="形状" points="32.1111111 24.5555556 28.3333333 32.1111111 24.5555556 30.2222222 5.66666668 32.1111111 1.88888889 30.2222222 5.66666668 22.6666667 9.44444443 24.5555556 16.2331111 23.8774444 17.9557778 23.7036667 28.3333333 22.6666667"></polygon>
                </g>
                <g id="旗帜" transform="translate(11.000000, 6.000000)">
                    <rect id="矩形" opacity="0" x="0" y="0" width="17" height="17"></rect>
                    <path d="M10.4390351,3.64902344 C10.4390351,3.64902344 11.068862,0.6375 4.3949346,3.43154297 L4.3949346,10.7246094 C4.3949346,10.7246094 10.998526,7.24160156 10.1944577,10.94375 C10.1944577,10.94375 14.1060985,9.67207031 14.8749994,9.85634766 L14.8749994,2.66953125 C14.8765974,2.66953125 11.522849,3.06796875 10.4390351,3.64902344 Z M2.98022184,2.125 C2.50705237,2.125 2.125,2.52177734 2.125,3.01318359 L2.125,16.1118164 C2.125,16.6032227 2.50705237,17 2.98022184,17 C3.45339131,17 3.83704222,16.6032227 3.83704222,16.1118164 L3.83704222,3.01318359 C3.83704222,2.52177734 3.45339131,2.125 2.98022184,2.125 Z" id="形状"></path>
                </g>
            </g>
        </g>
    </g>
</svg>