<?xml version="1.0" encoding="UTF-8"?>
<svg width="36px" height="36px" viewBox="0 0 36 36" version="1.1" xmlns="http://www.w3.org/2000/svg" xmlns:xlink="http://www.w3.org/1999/xlink">
    <title>画像分析系统</title>
    <defs>
        <filter x="-7.8%" y="-7.8%" width="115.6%" height="115.6%" filterUnits="objectBoundingBox" id="filter-1">
            <feOffset dx="1" dy="1" in="SourceAlpha" result="shadowOffsetOuter1"></feOffset>
            <feColorMatrix values="0 0 0 0 0.0705882353   0 0 0 0 0.215686275   0 0 0 0 0.329411765  0 0 0 0.25 0" type="matrix" in="shadowOffsetOuter1" result="shadowMatrixOuter1"></feColorMatrix>
            <feMerge>
                <feMergeNode in="shadowMatrixOuter1"></feMergeNode>
                <feMergeNode in="SourceGraphic"></feMergeNode>
            </feMerge>
        </filter>
    </defs>
    <g id="页面-1" stroke="none" stroke-width="1" fill="none" fill-rule="evenodd">
        <g id="图标画板" transform="translate(-55.000000, -239.000000)" fill="#FFFFFF" fill-rule="nonzero">
            <g id="画像分析系统" filter="url(#filter-1)" transform="translate(57.000000, 241.000000)">
                <g id="留存分析">
                    <rect id="矩形" opacity="0" x="0" y="0" width="32" height="32"></rect>
                    <path d="M16.0692641,31.8614719 C13.9209478,31.8614719 11.832133,31.4404536 9.86858447,30.6140104 C7.97080071,29.8156351 6.26717965,28.6710893 4.80469612,27.2146781 C3.3422126,25.7582669 2.19289471,24.0617194 1.39119068,22.1718153 C0.561301748,20.2164196 0.138528139,18.1393963 0.138528139,15.9968813 C0.138528139,13.8543664 0.561301748,11.7773431 1.39119068,9.82194735 C2.19289471,7.93204331 3.3422126,6.23549579 4.80469612,4.77908459 C6.26717965,3.32267339 7.97080071,2.18436486 9.86858447,1.38598955 C11.832133,0.559546365 13.9178161,0.138528139 16.0692641,0.138528139 C18.220712,0.138528139 20.3063951,0.559546365 22.2699437,1.38598955 C24.1677274,2.18436486 25.8713485,3.3289107 27.333832,4.7853219 C28.7963155,6.2417331 29.9456334,7.93828062 30.7473375,9.82818466 C31.5772264,11.7835804 32,13.8606037 32,16.0031187 C32,18.1456336 31.5772264,20.2226569 30.7473375,22.1780526 C29.9456334,24.0679567 28.7963155,25.7645042 27.333832,27.2209154 C25.8713485,28.6773266 24.1677274,29.8218725 22.2699437,30.6202478 C20.3032635,31.4404536 18.2175803,31.8614719 16.0692641,31.8614719 Z M16.0692641,1.63548183 C8.1148569,1.63548183 1.64485485,8.07862003 1.64485485,16 C1.64485485,23.92138 8.1148569,30.3645182 16.0692641,30.3645182 C24.0236712,30.3645182 30.4936733,23.92138 30.4936733,16 C30.4936733,8.07862003 24.0236712,1.63548183 16.0692641,1.63548183 Z M16.078659,26.9620672 C16.5390125,26.9620672 17.0056293,26.9308806 17.4597195,26.8747449 L17.6476189,28.3592239 C17.1340272,28.4247157 16.6047773,28.4590209 16.0817907,28.4590209 L16.078659,26.9620672 Z M12.9720559,28.0723078 L13.3415914,26.6221339 C13.7862866,26.7344055 14.2435084,26.8217278 14.7007302,26.8778635 L14.5159625,28.3623426 C13.9961076,28.2968509 13.4762526,28.2001726 12.9720559,28.0723078 Z M19.1915255,28.0660705 L18.8157267,26.6158966 C19.2604219,26.5005064 19.7019855,26.360167 20.1278907,26.1886411 L20.6821939,27.5795606 C20.1999188,27.7729171 19.6988538,27.9382057 19.1915255,28.0660705 Z M11.4751242,27.5920352 C10.9897174,27.4017973 10.510574,27.1772543 10.0533522,26.927762 L10.7767648,25.6148088 C11.1807485,25.8362332 11.6003904,26.0327084 12.0262957,26.2011157 L11.4751242,27.5920352 Z M21.3805533,25.6023342 C21.7814053,25.3809098 22.1728623,25.1314175 22.5455294,24.8632133 L23.4317882,26.0732509 C23.0090146,26.378879 22.5643194,26.6626764 22.1070975,26.9121687 L21.3805533,25.6023342 Z M8.72552989,26.0888442 C8.30275628,25.7832161 7.89564096,25.4495202 7.51357888,25.0939937 L8.54076217,24.002465 C8.8758494,24.3143303 9.23598988,24.6106024 9.60552533,24.8788066 L8.72552989,26.0888442 Z M24.6406075,25.0752818 L23.6102926,23.983753 C23.9453798,23.668769 24.2648088,23.3319545 24.5560528,22.9795466 L25.7147657,23.9338546 C25.3796784,24.3361609 25.019538,24.7197553 24.6406075,25.0752818 Z M6.43942075,23.9525665 C6.10433351,23.5533789 5.79429953,23.1261233 5.51245046,22.6895118 L6.78077129,21.8848992 C7.02817214,22.2716123 7.30062625,22.6458507 7.59500194,22.9951399 L6.43942075,23.9525665 Z M25.3702835,21.8693059 C25.6176843,21.4825929 25.8400319,21.0771679 26.0373263,20.662387 L27.3964651,21.2985924 C27.1709859,21.769509 26.9173217,22.2310698 26.6386043,22.6707999 L25.3702835,21.8693059 Z M4.75458962,21.3235416 C4.53224202,20.8526249 4.33494767,20.3629963 4.17210154,19.870249 L5.60013684,19.4055697 C5.74106138,19.8390625 5.91330248,20.2694367 6.11059683,20.6842176 L4.75458962,21.3235416 Z M27.9726899,19.8421812 L26.541523,19.3806204 C26.6824475,18.9471276 26.7983188,18.4980415 26.8828735,18.0489554 L28.3610153,18.3265155 C28.263934,18.8379747 28.1324044,19.3463152 27.9726899,19.8421812 Z M3.58335014,16.7983753 L5.08341354,16.7048157 C5.11159845,17.1632578 5.17109992,17.6216998 5.2587863,18.0707859 L3.78064449,18.3514648 C3.68356314,17.8431242 3.61779836,17.3191904 3.58335014,16.7983753 Z M28.555178,16.7734261 L27.0551146,16.6829851 C27.0676412,16.4584421 27.0770362,16.2276617 27.0770362,16 C27.0770362,15.7692196 27.0707729,15.5353206 27.0551146,15.3045403 L28.555178,15.2109807 C28.5708363,15.4729476 28.5802312,15.7380331 28.5802312,16 C28.5802312,16.2557296 28.5708363,16.5176965 28.555178,16.7734261 Z M3.58021848,15.2390485 C3.61153505,14.7182334 3.67729983,14.1974183 3.77124952,13.6859591 L5.24939133,13.9635192 C5.1648366,14.4126054 5.10846679,14.8710474 5.08028188,15.3294895 L3.58021848,15.2390485 Z M26.8828735,13.93857 C26.7983188,13.4894839 26.6824475,13.0403978 26.5383913,12.606905 L27.9664266,12.1453442 C28.1292727,12.6412101 28.2576706,13.1495507 28.3578836,13.6610099 L26.8828735,13.93857 Z M4.15957491,12.1702935 C4.31928939,11.6744276 4.51345208,11.1847989 4.73579968,10.7138823 L6.0980702,11.3500876 C5.90077585,11.7617499 5.73166641,12.1952427 5.59074187,12.6287355 L4.15957491,12.1702935 Z M25.3640202,10.1244567 L26.632341,9.31984414 C26.9141901,9.75957428 27.1678542,10.2180164 27.3902018,10.688933 L26.031063,11.328257 C25.8369003,10.9165947 25.611421,10.5111698 25.3640202,10.1244567 Z M6.76198135,10.1431687 L5.49366052,9.34167471 C5.77237794,8.90194456 6.08241192,8.47780768 6.41436749,8.07550138 L7.57308035,9.0266907 C7.28183631,9.37909855 7.00625055,9.75645563 6.76198135,10.1431687 Z M23.6040293,8.006891 L24.6343442,6.91536226 C25.0164063,7.27088877 25.3765468,7.65448315 25.7085024,8.0536708 L24.5497895,9.01109744 C24.2554138,8.65868959 23.9391165,8.32187501 23.6040293,8.006891 Z M8.51884057,8.02248427 L7.48852563,6.93407418 C7.86745605,6.57854768 8.27457138,6.2417331 8.69734499,5.9329864 L9.58360374,7.14302397 C9.21093663,7.41122817 8.8539278,7.70750026 8.51884057,8.02248427 Z M22.5392661,7.1274307 C22.166599,6.8592265 21.775142,6.60973422 21.3711583,6.38830982 L22.0977026,5.07847533 C22.5549244,5.32796762 22.9996196,5.61176509 23.4223932,5.91739313 L22.5392661,7.1274307 Z M10.018904,5.09094995 C10.4761258,4.83833901 10.9521376,4.61379596 11.4375443,4.42043944 L11.9949791,5.81135891 C11.5690739,5.98288486 11.1463003,6.17936003 10.7454482,6.40078443 L10.018904,5.09094995 Z M18.8063317,5.37786607 L19.1789988,3.92769218 C19.6863272,4.05555697 20.1873922,4.22084561 20.6759306,4.41108348 L20.1216274,5.80200295 C19.6957221,5.63359566 19.2510269,5.4901376 18.8063317,5.37786607 Z M12.9313444,3.93392949 C13.4355411,3.80294604 13.955396,3.70626778 14.475251,3.6376574 L14.666282,5.12213648 C14.2059285,5.18450955 13.7518384,5.27183185 13.3071432,5.38410338 L12.9313444,3.93392949 Z M17.4471929,5.12213648 C16.9931027,5.06600072 16.5296176,5.03793284 16.0661324,5.03793284 L16.0410792,5.03793284 L16.0348158,3.54097914 L16.0630008,3.54097914 C16.5859874,3.54097914 17.1121056,3.57216568 17.6288289,3.6376574 L17.4471929,5.12213648 Z" id="形状"></path>
                </g>
                <g id="好友" transform="translate(7.480519, 7.757576)">
                    <rect id="矩形" opacity="0" x="0.108576109" y="0" width="16.0692641" height="16.0692641"></rect>
                    <path d="M7.43843611,10.1665938 C7.41720405,10.2832683 7.39066399,10.3734259 7.35881592,10.4370666 C7.32696785,10.5007072 7.25265568,10.5696513 7.13587941,10.6438987 C6.85986277,10.8136071 6.56261408,10.9514952 6.24413334,11.0575629 C5.9256526,11.1636307 5.62044189,11.2803052 5.32850122,11.4075865 C5.03656055,11.5348678 4.78177595,11.7019245 4.56414744,11.9087566 C4.34651893,12.1155887 4.21116462,12.4099267 4.15808451,12.7917706 C4.13685246,12.9084451 4.12358243,13.022468 4.11827442,13.1338391 C4.11296642,13.2452103 4.1050044,13.3486263 4.09438837,13.4440873 C4.08377235,13.4653008 4.07315632,13.4838627 4.06254029,13.4997729 C4.05192426,13.515683 4.04130824,13.5342449 4.03069222,13.5554584 C3.61666726,13.5236381 3.19733429,13.4865144 2.7726933,13.4440873 C2.34805231,13.4016602 1.95791341,13.3539297 1.60227659,13.3008958 C1.24663977,13.247862 0.946737078,13.1948281 0.702568512,13.1417942 C0.458399946,13.0887603 0.304467591,13.0357264 0.240771447,12.9826926 C0.145227231,12.9084451 0.0735690634,12.6857029 0.0257969449,12.3144658 C-0.0219751736,11.9432286 -0.00339712985,11.4606204 0.0815310762,10.866641 C0.1346112,10.5378309 0.269965511,10.28592 0.48759401,10.1109082 C0.705222509,9.93589645 0.962661104,9.79800838 1.25990979,9.69724402 C1.55715848,9.59647966 1.86236919,9.50367038 2.17554192,9.41881618 C2.48871464,9.33396198 2.76738529,9.21728746 3.01155385,9.06879261 C3.2026423,8.94151131 3.34861263,8.82483679 3.44946487,8.71876904 C3.5503171,8.6127013 3.62197526,8.50398186 3.66443937,8.39261072 C3.70690347,8.28123958 3.72813552,8.16721674 3.72813552,8.05054222 C3.72813552,7.9338677 3.72282751,7.8065864 3.71221149,7.66869833 C3.69097944,7.45656282 3.61932127,7.28950612 3.49723699,7.1675282 C3.37515271,7.04555029 3.23979839,6.92092068 3.09117406,6.79363938 C3.00624586,6.7406055 2.93458769,6.6557513 2.87619955,6.53907678 C2.81781141,6.42240226 2.7673853,6.30572773 2.72492121,6.18905321 C2.6824571,6.06177191 2.63999301,5.91858045 2.59752891,5.75947883 C2.53383277,5.73826528 2.47013662,5.70644496 2.40644046,5.66401786 C2.35336034,5.62159076 2.29762621,5.5579501 2.23923807,5.47309591 C2.18084993,5.38824171 2.1251158,5.27156718 2.07203568,5.12307234 C2.01895555,4.97457749 1.9977235,4.83403772 2.00833952,4.70145303 C2.01895554,4.56886833 2.0454956,4.4548455 2.08795971,4.35938453 C2.13042381,4.24271001 2.18881194,4.14724903 2.26312411,4.0730016 C2.25250809,3.73358481 2.26843212,3.38886462 2.31089622,3.03884104 C2.35336032,2.75245812 2.42236448,2.44486165 2.5179087,2.11605162 C2.61345291,1.7872416 2.75676924,1.4902519 2.94785768,1.22508252 C3.11771407,0.97051992 3.30880252,0.763687808 3.52112301,0.60458618 C3.73344351,0.445484553 3.948418,0.320854945 4.1660465,0.230697355 C4.383675,0.140539765 4.60395751,0.0795508084 4.82689404,0.047730485 C5.04983056,0.0159101617 5.26745907,0 5.47977955,0 C6.01058078,0 6.48830188,0.111371137 6.91294287,0.334113411 C7.33758386,0.556855685 7.65606459,0.795508121 7.86838508,1.05007072 C8.0063934,1.2303859 8.0939756,1.39744261 8.13113169,1.55124084 C8.16828778,1.70503908 8.21871389,1.88270256 8.28241004,2.08423128 C8.08070557,2.2009058 7.86573108,2.3732659 7.63748655,2.60131156 C7.40924202,2.82935722 7.21019156,3.06005458 7.04033516,3.29340362 C6.82801467,3.59039333 6.6687743,3.91920335 6.56261405,4.2798337 C6.45645381,4.64046405 6.37683362,4.97457746 6.3237535,5.28217393 C6.27067337,5.65341106 6.24413331,6.02464819 6.24413331,6.39588531 C6.15920512,6.49134628 6.09550897,6.59741403 6.05304486,6.71408856 C6.01058076,6.82015631 5.9840407,6.94478592 5.97342468,7.08797739 C5.96280866,7.23116885 5.98404071,7.38761879 6.03712083,7.55732718 C6.09020096,7.73764236 6.14858909,7.87553044 6.21228523,7.97099141 C6.27598138,8.06645238 6.33436951,8.1406998 6.38744964,8.19373368 C6.45114578,8.25737432 6.51484193,8.29980142 6.57853808,8.32101498 C6.62100219,8.49072337 6.66346628,8.649825 6.70593038,8.79831986 C6.74839448,8.92560116 6.7988206,9.05553416 6.85720872,9.18811884 C6.91559685,9.32070352 6.98725502,9.41881619 7.07218323,9.48245685 C7.1464954,9.5460975 7.20488353,9.59913137 7.24734763,9.64155848 C7.28981172,9.68398558 7.3243138,9.72376099 7.35085387,9.76088469 C7.37739393,9.7980084 7.39331797,9.84839058 7.39862597,9.91203123 C7.40393398,9.97567189 7.41720401,10.0605261 7.43843606,10.1665938 L7.43843611,10.1665938 Z M15.9259477,13.0940637 C15.9684118,13.2425585 16.0029139,13.4228737 16.029454,13.6350092 C16.055994,13.8471447 16.0692641,14.0619319 16.0692641,14.2793708 C16.0692641,14.4968097 16.05334,14.7009901 16.021492,14.8919121 C15.9896439,15.082834 15.9418718,15.2260255 15.8781756,15.3214864 C15.8357115,15.3851271 15.7109732,15.4487677 15.5039608,15.5124084 C15.2969483,15.576049 15.0395097,15.6343863 14.731645,15.6874202 C14.4237803,15.740454 14.0840675,15.7908362 13.7125066,15.8385667 C13.3409458,15.8862972 12.9667309,15.9260726 12.589862,15.9578929 C12.2129931,15.9897132 11.8493943,16.0162302 11.4990655,16.0374437 C11.1487367,16.0586573 10.840872,16.0692641 10.5754714,16.0692641 C10.3100708,16.0692641 10.00486,16.0586573 9.65983924,16.0374437 C9.31481843,16.0162302 8.9565276,15.9897133 8.58496675,15.9578929 C8.21340589,15.9260726 7.84715304,15.8916006 7.4862082,15.8544769 C7.12526335,15.8173532 6.79351258,15.7749261 6.49095589,15.7271956 C6.1883992,15.6794651 5.9336146,15.6317346 5.72660211,15.5840041 C5.51958963,15.5362736 5.38954332,15.4911948 5.33646321,15.4487677 C5.25153502,15.3745203 5.18253086,15.151778 5.12945073,14.7805409 C5.07637061,14.4093038 5.09229465,13.9319989 5.17722284,13.3486263 C5.23030296,13.0092095 5.36565728,12.7546469 5.58328577,12.5849385 C5.80091427,12.4152301 6.05835287,12.277342 6.35560156,12.1712742 C6.65285025,12.0652065 6.95806096,11.9723972 7.27123368,11.8928464 C7.58440641,11.8132956 7.86307705,11.6939694 8.10724562,11.5348678 C8.29833406,11.4075865 8.4443044,11.2909119 8.54515663,11.1848442 C8.64600886,11.0787764 8.72032103,10.9727087 8.76809314,10.8666409 C8.81586525,10.7605732 8.8397513,10.649202 8.8397513,10.5325275 C8.8397513,10.415853 8.83444329,10.2832683 8.82382727,10.1347735 C8.80259522,9.92263795 8.72828305,9.75558124 8.60089076,9.63360333 C8.47349847,9.51162542 8.33549015,9.3922992 8.1868658,9.27562468 C8.11255363,9.21198403 8.04620348,9.12182644 7.98781535,9.00515191 C7.92942722,8.88847737 7.8790011,8.77180285 7.836537,8.65512834 C7.7940729,8.52784704 7.7516088,8.38465558 7.70914471,8.22555396 C7.64544856,8.20434041 7.58175241,8.17252008 7.51805626,8.13009299 C7.46497614,8.08766588 7.40924201,8.02402523 7.35085387,7.93917103 C7.29246573,7.85431683 7.2367316,7.73764231 7.18365147,7.58914747 C7.13057135,7.44065262 7.1093393,7.30011285 7.11995532,7.16752816 C7.13057134,7.03494346 7.1571114,6.92622402 7.1995755,6.84136983 C7.24203961,6.73530208 7.30042774,6.6398411 7.3747399,6.5549869 C7.36412388,6.21557011 7.38004792,5.87084992 7.42251201,5.52082634 C7.46497612,5.22383664 7.53132627,4.91358847 7.62156247,4.59008184 C7.71179867,4.2665752 7.852461,3.96693381 8.04354945,3.69115766 C8.21340584,3.43659506 8.40449428,3.22976295 8.61681478,3.07066132 C8.82913527,2.9115597 9.04676377,2.78693009 9.26970029,2.6967725 C9.4926368,2.60661491 9.71557332,2.54562595 9.93850983,2.51380563 C10.1614463,2.48198531 10.3737668,2.46607514 10.5754713,2.46607514 C11.1168886,2.46607514 11.5999177,2.57744628 12.0245587,2.80018855 C12.4491996,3.02293083 12.7623724,3.26158326 12.9640768,3.51614586 C13.1976294,3.80252878 13.3701398,4.12338373 13.481608,4.4787107 C13.5930763,4.83403766 13.6753505,5.16549938 13.7284306,5.47309586 C13.7815107,5.83372621 13.8027428,6.19435656 13.7921267,6.5549869 C13.8452069,6.59741401 13.892979,6.65575127 13.9354431,6.72999869 C13.9672911,6.79363933 13.9964852,6.87584184 14.0230253,6.9766062 C14.0495653,7.07737056 14.0522193,7.20200017 14.0309873,7.35049502 C14.0097552,7.54141698 13.9672911,7.69521521 13.903595,7.81188973 C13.8398989,7.92856426 13.7762027,8.01872185 13.7125066,8.0823625 C13.6381944,8.15660993 13.5532662,8.20434042 13.457722,8.22555396 C13.4152579,8.38465559 13.3727938,8.52784705 13.3303297,8.65512834 C13.2878656,8.77180286 13.2347854,8.88847739 13.1710893,9.00515191 C13.1073932,9.12182643 13.038389,9.20668063 12.9640768,9.2597145 C12.8791486,9.33396193 12.8021825,9.39760258 12.7331783,9.45063646 C12.6641741,9.50367034 12.603132,9.55935591 12.5500519,9.61769317 C12.4969717,9.67603044 12.4518536,9.74232278 12.4146976,9.8165702 C12.3775415,9.89081762 12.3483474,9.98097521 12.3271153,10.087043 C12.3058833,10.224931 12.2979213,10.3654708 12.3032293,10.5086623 C12.3085373,10.6518537 12.3430394,10.7923935 12.4067355,10.9302816 C12.4704317,11.0681697 12.5739379,11.2007544 12.7172542,11.3280357 C12.8605706,11.455317 13.059621,11.5666881 13.3144056,11.6621491 C13.5373421,11.75761 13.7841647,11.8398125 14.0548733,11.9087566 C14.325582,11.9777006 14.5856746,12.0599031 14.8351511,12.1553641 C15.0846277,12.2508251 15.3075642,12.372803 15.5039607,12.5212978 C15.7003571,12.6697927 15.8410195,12.8607146 15.9259477,13.0940637 L15.9259477,13.0940637 Z" id="形状"></path>
                </g>
            </g>
        </g>
    </g>
</svg>